# xmcd
#
# Track frame offsets:
#	150
#	23741
#	44168
#	60453
#	87968
#	119481
#	139171
#	160008
#	173111
#	185541
#	213273
#	227551
#	243586
#	263661
#	278846
#	292896
#	305231
#	318348
#
# Disc length: 4434 seconds
#
# Revision: 0
# Processed by: cddbd v1.5.1PL0 Copyright (c) Steve Scherf et al.
# Submitted via: dBpowerAMP V4.0
#
DISCID=03115012
DTITLE=Various Artist - Best In Original Chicago and Country Blues
DYEAR=1995
DGENRE=Blues
TTITLE0=Morning Rain - Vaan Shaw 
TTITLE1=Shake Your Booty - Michael Coleman
TTITLE2=Nobody's Special - Larry Garner 
TTITLE3=Woman In Every Town - Vance Kelly
TTITLE4=Blues Behind Closed Doors - John Primer 
TTITLE5=Blue Temptation - Dana Gillespie
TTITLE6=Spider In My Stew - Magic Slim 
TTITLE7=Last Time - Jimmy Rogers 
TTITLE8=Hoochie Coochie Man - Muddy Waters
TTITLE9=I Wonder Why - Albert King 
TTITLE10=Dust My Broom - Hound Dog Taylor 
TTITLE11=I'm Gonna Let You Go - John Brim
TTITLE12=Driftin' Blues - Charles Brown 
TTITLE13=Men's A Fool - Maxwell Jimmy Davis
TTITLE14=Bluebird - Sonny Boy Williamson 
TTITLE15=Hold Me Blues - Memphis Minnie
TTITLE16=Drivin' Wheel - Roosevelt Sykes
TTITLE17=My Black Mama - Son House 
EXTD=
EXTT0=
EXTT1=
EXTT2=
EXTT3=
EXTT4=
EXTT5=
EXTT6=
EXTT7=
EXTT8=
EXTT9=
EXTT10=
EXTT11=
EXTT12=
EXTT13=
EXTT14=
EXTT15=
EXTT16=
EXTT17=
PLAYORDER=
